<svg xmlns="http://www.w3.org/2000/svg" xmlns:xlink="http://www.w3.org/1999/xlink" width="1080" zoomAndPan="magnify" viewBox="0 0 810 809.999993" height="1080" preserveAspectRatio="xMidYMid meet" version="1.0"><defs><clipPath id="71dc678ad0"><path d="M 8.703125 249 L 801.453125 249 L 801.453125 597 L 8.703125 597 Z M 8.703125 249 " clip-rule="nonzero"/></clipPath><clipPath id="d8657d3392"><path d="M 289 230 L 801.453125 230 L 801.453125 600 L 289 600 Z M 289 230 " clip-rule="nonzero"/></clipPath></defs><g clip-path="url(#71dc678ad0)"><path fill="#6ec7de" d="M 8.703125 249.695312 C 44.746094 325.582031 185.648438 564.15625 330.375 592.191406 C 464.15625 618.113281 647.445312 516.664062 801.292969 431.753906 C 507.375 494.167969 262.761719 457.164062 8.703125 249.695312 Z M 8.703125 249.695312 " fill-opacity="1" fill-rule="evenodd"/></g><g clip-path="url(#d8657d3392)"><path fill="#095a89" d="M 326.285156 591.34375 C 463.160156 619.332031 652.527344 576.09375 801.292969 431.753906 C 716.261719 296.957031 525.121094 190.699219 289.046875 244.703125 C 555.148438 317.738281 537.902344 546.578125 326.285156 591.34375 Z M 326.285156 591.34375 " fill-opacity="1" fill-rule="evenodd"/></g></svg>